<?xml version="1.0" encoding="iso-8859-1"?>
<!-- Generator: Adobe Illustrator 19.0.0, SVG Export Plug-In . SVG Version: 6.00 Build 0)  -->
<svg version="1.1" id="Layer_1" xmlns="http://www.w3.org/2000/svg" xmlns:xlink="http://www.w3.org/1999/xlink" x="0px" y="0px"
	 viewBox="0 0 512 512" style="enable-background:new 0 0 512 512;" xml:space="preserve">
<path style="fill:#F0C419;" d="M466.875,377.492c0-25.166,6.942-48.597,19.092-69.424H173.559H69.424
	C31.241,308.068,0,339.308,0,377.492s31.241,69.424,69.424,69.424h104.136h312.407C473.817,426.088,466.875,402.658,466.875,377.492
	"/>
<g>
	<path style="fill:#F29C1F;" d="M182.237,420.881H69.424c-24.298,0-43.39-19.092-43.39-43.39c0-24.298,19.092-43.39,43.39-43.39
		h199.593c5.207,0,8.678,3.471,8.678,8.678c0,5.207-3.471,8.678-8.678,8.678H69.424c-14.753,0-26.034,11.281-26.034,26.034
		c0,14.753,11.281,26.034,26.034,26.034h112.814c5.207,0,8.678,3.471,8.678,8.678C190.915,417.41,187.444,420.881,182.237,420.881"
		/>
	<path style="fill:#F29C1F;" d="M485.966,351.458H303.729c-5.207,0-8.678-3.471-8.678-8.678c0-5.207,3.471-8.678,8.678-8.678
		h182.237c5.207,0,8.678,3.471,8.678,8.678C494.644,347.986,491.173,351.458,485.966,351.458"/>
	<path style="fill:#F29C1F;" d="M303.729,420.881h-78.102c-5.207,0-8.678-3.471-8.678-8.678c0-5.207,3.471-8.678,8.678-8.678h78.102
		c5.207,0,8.678,3.471,8.678,8.678C312.407,417.41,308.936,420.881,303.729,420.881"/>
	<path style="fill:#F29C1F;" d="M485.966,420.881H347.119c-5.207,0-8.678-3.471-8.678-8.678c0-5.207,3.471-8.678,8.678-8.678
		h138.847c5.207,0,8.678,3.471,8.678,8.678C494.644,417.41,491.173,420.881,485.966,420.881"/>
	<path style="fill:#F29C1F;" d="M130.169,386.169H78.102c-5.207,0-8.678-3.471-8.678-8.678c0-5.207,3.471-8.678,8.678-8.678h52.068
		c5.207,0,8.678,3.471,8.678,8.678C138.847,382.698,135.376,386.169,130.169,386.169"/>
</g>
<path style="fill:#B1DC85;" d="M481.627,308.068H4.339c-2.603,0-4.339-1.736-4.339-4.339v-78.102c0-2.603,1.736-4.339,4.339-4.339
	h477.288c2.603,0,4.339,1.736,4.339,4.339v78.102C485.966,306.332,484.23,308.068,481.627,308.068"/>
<g>
	<polygon style="fill:#88C057;" points="69.424,308.068 121.492,308.068 121.492,221.288 69.424,221.288 	"/>
	<path style="fill:#88C057;" d="M347.119,273.356H182.237c-5.207,0-8.678-3.471-8.678-8.678c0-5.207,3.471-8.678,8.678-8.678
		h164.881c5.207,0,8.678,3.471,8.678,8.678C355.797,269.885,352.325,273.356,347.119,273.356"/>
	<polygon style="fill:#88C057;" points="399.186,308.068 433.898,308.068 433.898,221.288 399.186,221.288 	"/>
</g>
<path style="fill:#E64C3C;" d="M438.237,134.508H21.695c-2.603,0-4.339-1.736-4.339-4.339V69.424c0-2.603,1.736-4.339,4.339-4.339
	h416.542c2.603,0,4.339,1.736,4.339,4.339v60.746C442.576,132.773,440.841,134.508,438.237,134.508"/>
<g>
	<polygon style="fill:#C03A2B;" points="86.78,134.508 138.847,134.508 138.847,65.085 86.78,65.085 	"/>
	<path style="fill:#C03A2B;" d="M303.729,108.475H199.593c-5.207,0-8.678-3.471-8.678-8.678s3.471-8.678,8.678-8.678h104.136
		c5.207,0,8.678,3.471,8.678,8.678S308.936,108.475,303.729,108.475"/>
	<polygon style="fill:#C03A2B;" points="355.797,134.508 390.508,134.508 390.508,65.085 355.797,65.085 	"/>
</g>
<path style="fill:#25C3AB;" d="M455.593,221.288H47.729c-2.603,0-4.339-1.736-4.339-4.339v-78.102c0-2.603,1.736-4.339,4.339-4.339
	h407.864c2.603,0,4.339,1.736,4.339,4.339v78.102C459.932,219.553,458.197,221.288,455.593,221.288"/>
<g>
	<polygon style="fill:#13A085;" points="95.458,221.288 130.169,221.288 130.169,134.508 95.458,134.508 	"/>
	<path style="fill:#13A085;" d="M425.22,186.576H182.237c-5.207,0-8.678-3.471-8.678-8.678c0-5.207,3.471-8.678,8.678-8.678H425.22
		c5.207,0,8.678,3.471,8.678,8.678C433.898,183.105,430.427,186.576,425.22,186.576"/>
</g>
<path style="fill:#F29C1F;" d="M486.834,368.814h-60.746l0,0l0,0H173.559c-5.207,0-8.678,3.471-8.678,8.678
	c0,5.207,3.471,8.678,8.678,8.678H425.22l0,0l0,0h60.746c5.207,0,8.678-3.471,8.678-8.678
	C495.512,373.153,491.173,368.814,486.834,368.814"/>
<g>
	<path style="fill:#F0C419;" d="M503.322,308.068h-17.356c-3.471,5.207-6.075,11.281-8.678,17.356h26.034
		c5.207,0,8.678-3.471,8.678-8.678S508.529,308.068,503.322,308.068"/>
	<path style="fill:#F0C419;" d="M503.322,429.559h-26.034c2.603,6.075,5.207,12.149,8.678,17.356h17.356
		c5.207,0,8.678-3.471,8.678-8.678C512,433.031,508.529,429.559,503.322,429.559"/>
</g>
<g>
</g>
<g>
</g>
<g>
</g>
<g>
</g>
<g>
</g>
<g>
</g>
<g>
</g>
<g>
</g>
<g>
</g>
<g>
</g>
<g>
</g>
<g>
</g>
<g>
</g>
<g>
</g>
<g>
</g>
</svg>
